<mxfile host="app.diagrams.net" agent="Mozilla/5.0 (X11; Linux x86_64) AppleWebKit/537.36 (KHTML, like Gecko) Chrome/128.0.0.0 Safari/537.36" version="24.8.2">
  <diagram name="第 1 页" id="KBllRR8JV2qq2Y_q4-QD">
    <mxGraphModel dx="1195" dy="628" grid="1" gridSize="10" guides="1" tooltips="1" connect="1" arrows="1" fold="1" page="1" pageScale="1" pageWidth="827" pageHeight="1169" math="0" shadow="0">
      <root>
        <mxCell id="0" />
        <mxCell id="1" parent="0" />
        <mxCell id="6QF6XNmBkioUWHS-vhsG-93" value="上位机" style="shape=umlLifeline;perimeter=lifelinePerimeter;whiteSpace=wrap;html=1;container=1;dropTarget=0;collapsible=0;recursiveResize=0;outlineConnect=0;portConstraint=eastwest;newEdgeStyle={&quot;curved&quot;:0,&quot;rounded&quot;:0};" vertex="1" parent="1">
          <mxGeometry x="70" y="120" width="100" height="300" as="geometry" />
        </mxCell>
        <mxCell id="6QF6XNmBkioUWHS-vhsG-96" value="" style="html=1;points=[[0,0,0,0,5],[0,1,0,0,-5],[1,0,0,0,5],[1,1,0,0,-5]];perimeter=orthogonalPerimeter;outlineConnect=0;targetShapes=umlLifeline;portConstraint=eastwest;newEdgeStyle={&quot;curved&quot;:0,&quot;rounded&quot;:0};" vertex="1" parent="6QF6XNmBkioUWHS-vhsG-93">
          <mxGeometry x="45" y="60" width="10" height="80" as="geometry" />
        </mxCell>
        <mxCell id="6QF6XNmBkioUWHS-vhsG-98" style="edgeStyle=orthogonalEdgeStyle;rounded=0;orthogonalLoop=1;jettySize=auto;html=1;curved=0;exitX=1;exitY=0;exitDx=0;exitDy=5;exitPerimeter=0;" edge="1" parent="6QF6XNmBkioUWHS-vhsG-93" source="6QF6XNmBkioUWHS-vhsG-96" target="6QF6XNmBkioUWHS-vhsG-96">
          <mxGeometry relative="1" as="geometry">
            <Array as="points">
              <mxPoint x="120" y="65" />
              <mxPoint x="120" y="90" />
            </Array>
          </mxGeometry>
        </mxCell>
        <mxCell id="6QF6XNmBkioUWHS-vhsG-94" value="MES" style="shape=umlLifeline;perimeter=lifelinePerimeter;whiteSpace=wrap;html=1;container=1;dropTarget=0;collapsible=0;recursiveResize=0;outlineConnect=0;portConstraint=eastwest;newEdgeStyle={&quot;curved&quot;:0,&quot;rounded&quot;:0};" vertex="1" parent="1">
          <mxGeometry x="250" y="120" width="100" height="300" as="geometry" />
        </mxCell>
        <mxCell id="6QF6XNmBkioUWHS-vhsG-97" value="" style="html=1;points=[[0,0,0,0,5],[0,1,0,0,-5],[1,0,0,0,5],[1,1,0,0,-5]];perimeter=orthogonalPerimeter;outlineConnect=0;targetShapes=umlLifeline;portConstraint=eastwest;newEdgeStyle={&quot;curved&quot;:0,&quot;rounded&quot;:0};" vertex="1" parent="6QF6XNmBkioUWHS-vhsG-94">
          <mxGeometry x="45" y="100" width="10" height="160" as="geometry" />
        </mxCell>
        <mxCell id="6QF6XNmBkioUWHS-vhsG-126" style="edgeStyle=orthogonalEdgeStyle;rounded=0;orthogonalLoop=1;jettySize=auto;html=1;curved=0;" edge="1" parent="6QF6XNmBkioUWHS-vhsG-94" source="6QF6XNmBkioUWHS-vhsG-97" target="6QF6XNmBkioUWHS-vhsG-94">
          <mxGeometry relative="1" as="geometry">
            <mxPoint x="80" y="200" as="sourcePoint" />
            <mxPoint x="80" y="275" as="targetPoint" />
            <Array as="points">
              <mxPoint x="70" y="220" />
            </Array>
          </mxGeometry>
        </mxCell>
        <mxCell id="6QF6XNmBkioUWHS-vhsG-95" value="RCS" style="shape=umlLifeline;perimeter=lifelinePerimeter;whiteSpace=wrap;html=1;container=1;dropTarget=0;collapsible=0;recursiveResize=0;outlineConnect=0;portConstraint=eastwest;newEdgeStyle={&quot;curved&quot;:0,&quot;rounded&quot;:0};" vertex="1" parent="1">
          <mxGeometry x="450" y="120" width="100" height="300" as="geometry" />
        </mxCell>
        <mxCell id="6QF6XNmBkioUWHS-vhsG-104" value="" style="html=1;points=[[0,0,0,0,5],[0,1,0,0,-5],[1,0,0,0,5],[1,1,0,0,-5]];perimeter=orthogonalPerimeter;outlineConnect=0;targetShapes=umlLifeline;portConstraint=eastwest;newEdgeStyle={&quot;curved&quot;:0,&quot;rounded&quot;:0};" vertex="1" parent="6QF6XNmBkioUWHS-vhsG-95">
          <mxGeometry x="45" y="114" width="10" height="80" as="geometry" />
        </mxCell>
        <mxCell id="6QF6XNmBkioUWHS-vhsG-109" style="edgeStyle=orthogonalEdgeStyle;rounded=0;orthogonalLoop=1;jettySize=auto;html=1;curved=0;exitX=1;exitY=0;exitDx=0;exitDy=5;exitPerimeter=0;" edge="1" parent="6QF6XNmBkioUWHS-vhsG-95">
          <mxGeometry relative="1" as="geometry">
            <mxPoint x="55" y="136.4999999999999" as="sourcePoint" />
            <mxPoint x="55" y="171.5000000000001" as="targetPoint" />
            <Array as="points">
              <mxPoint x="130" y="136.5" />
              <mxPoint x="130" y="171.5" />
            </Array>
          </mxGeometry>
        </mxCell>
        <mxCell id="6QF6XNmBkioUWHS-vhsG-102" value="&lt;span style=&quot;font-size: 11px;&quot;&gt;1. 识别货架装满信号&lt;/span&gt;" style="text;html=1;align=center;verticalAlign=middle;resizable=0;points=[];autosize=1;strokeColor=none;fillColor=none;fontSize=11;" vertex="1" parent="1">
          <mxGeometry x="140" y="182" width="120" height="30" as="geometry" />
        </mxCell>
        <mxCell id="6QF6XNmBkioUWHS-vhsG-105" style="edgeStyle=orthogonalEdgeStyle;rounded=0;orthogonalLoop=1;jettySize=auto;html=1;curved=0;exitX=1;exitY=0;exitDx=0;exitDy=5;exitPerimeter=0;" edge="1" parent="1" target="6QF6XNmBkioUWHS-vhsG-104">
          <mxGeometry relative="1" as="geometry">
            <mxPoint x="305" y="250" as="sourcePoint" />
            <mxPoint x="480" y="250" as="targetPoint" />
            <Array as="points">
              <mxPoint x="305" y="251" />
            </Array>
          </mxGeometry>
        </mxCell>
        <mxCell id="6QF6XNmBkioUWHS-vhsG-106" value="&lt;font style=&quot;font-size: 11px;&quot;&gt;3. 生成任务单，调度Agv&lt;/font&gt;" style="text;html=1;align=center;verticalAlign=middle;resizable=0;points=[];autosize=1;strokeColor=none;fillColor=none;fontSize=11;" vertex="1" parent="1">
          <mxGeometry x="330" y="210" width="140" height="30" as="geometry" />
        </mxCell>
        <mxCell id="6QF6XNmBkioUWHS-vhsG-108" style="edgeStyle=orthogonalEdgeStyle;rounded=0;orthogonalLoop=1;jettySize=auto;html=1;curved=0;exitX=0;exitY=1;exitDx=0;exitDy=-5;exitPerimeter=0;" edge="1" parent="1" source="6QF6XNmBkioUWHS-vhsG-104" target="6QF6XNmBkioUWHS-vhsG-97">
          <mxGeometry relative="1" as="geometry">
            <Array as="points">
              <mxPoint x="350" y="310" />
              <mxPoint x="350" y="310" />
            </Array>
          </mxGeometry>
        </mxCell>
        <mxCell id="6QF6XNmBkioUWHS-vhsG-110" value="4. agv执行搬运任务" style="text;html=1;align=center;verticalAlign=middle;resizable=0;points=[];autosize=1;strokeColor=none;fillColor=none;fontSize=11;" vertex="1" parent="1">
          <mxGeometry x="525" y="256" width="120" height="30" as="geometry" />
        </mxCell>
        <mxCell id="6QF6XNmBkioUWHS-vhsG-112" value="&lt;span style=&quot;font-size: 11px;&quot;&gt;5. agv回调任务完成状态&lt;/span&gt;" style="text;html=1;align=center;verticalAlign=middle;resizable=0;points=[];autosize=1;strokeColor=none;fillColor=none;fontSize=11;" vertex="1" parent="1">
          <mxGeometry x="330" y="280" width="140" height="30" as="geometry" />
        </mxCell>
        <mxCell id="6QF6XNmBkioUWHS-vhsG-128" style="edgeStyle=orthogonalEdgeStyle;rounded=0;orthogonalLoop=1;jettySize=auto;html=1;curved=0;exitX=1;exitY=0;exitDx=0;exitDy=5;exitPerimeter=0;" edge="1" parent="1">
          <mxGeometry relative="1" as="geometry">
            <mxPoint x="305" y="338" as="sourcePoint" />
            <mxPoint x="305" y="368" as="targetPoint" />
            <Array as="points">
              <mxPoint x="380" y="338" />
              <mxPoint x="380" y="368" />
            </Array>
          </mxGeometry>
        </mxCell>
        <mxCell id="6QF6XNmBkioUWHS-vhsG-129" value="6. 记录入库信息" style="text;html=1;align=center;verticalAlign=middle;resizable=0;points=[];autosize=1;strokeColor=none;fillColor=none;fontSize=11;" vertex="1" parent="1">
          <mxGeometry x="330" y="338" width="100" height="30" as="geometry" />
        </mxCell>
        <mxCell id="6QF6XNmBkioUWHS-vhsG-134" value="PDA" style="shape=umlLifeline;perimeter=lifelinePerimeter;whiteSpace=wrap;html=1;container=1;dropTarget=0;collapsible=0;recursiveResize=0;outlineConnect=0;portConstraint=eastwest;newEdgeStyle={&quot;curved&quot;:0,&quot;rounded&quot;:0};" vertex="1" parent="1">
          <mxGeometry x="46" y="560" width="100" height="300" as="geometry" />
        </mxCell>
        <mxCell id="6QF6XNmBkioUWHS-vhsG-141" value="" style="html=1;points=[[0,0,0,0,5],[0,1,0,0,-5],[1,0,0,0,5],[1,1,0,0,-5]];perimeter=orthogonalPerimeter;outlineConnect=0;targetShapes=umlLifeline;portConstraint=eastwest;newEdgeStyle={&quot;curved&quot;:0,&quot;rounded&quot;:0};" vertex="1" parent="6QF6XNmBkioUWHS-vhsG-134">
          <mxGeometry x="45" y="60" width="10" height="80" as="geometry" />
        </mxCell>
        <mxCell id="6QF6XNmBkioUWHS-vhsG-135" value="RCS" style="shape=umlLifeline;perimeter=lifelinePerimeter;whiteSpace=wrap;html=1;container=1;dropTarget=0;collapsible=0;recursiveResize=0;outlineConnect=0;portConstraint=eastwest;newEdgeStyle={&quot;curved&quot;:0,&quot;rounded&quot;:0};" vertex="1" parent="1">
          <mxGeometry x="460" y="560" width="100" height="300" as="geometry" />
        </mxCell>
        <mxCell id="6QF6XNmBkioUWHS-vhsG-145" value="" style="html=1;points=[[0,0,0,0,5],[0,1,0,0,-5],[1,0,0,0,5],[1,1,0,0,-5]];perimeter=orthogonalPerimeter;outlineConnect=0;targetShapes=umlLifeline;portConstraint=eastwest;newEdgeStyle={&quot;curved&quot;:0,&quot;rounded&quot;:0};" vertex="1" parent="6QF6XNmBkioUWHS-vhsG-135">
          <mxGeometry x="45" y="60" width="10" height="80" as="geometry" />
        </mxCell>
        <mxCell id="6QF6XNmBkioUWHS-vhsG-136" value="MES" style="shape=umlLifeline;perimeter=lifelinePerimeter;whiteSpace=wrap;html=1;container=1;dropTarget=0;collapsible=0;recursiveResize=0;outlineConnect=0;portConstraint=eastwest;newEdgeStyle={&quot;curved&quot;:0,&quot;rounded&quot;:0};" vertex="1" parent="1">
          <mxGeometry x="235" y="560" width="100" height="300" as="geometry" />
        </mxCell>
        <mxCell id="6QF6XNmBkioUWHS-vhsG-147" value="" style="html=1;points=[[0,0,0,0,5],[0,1,0,0,-5],[1,0,0,0,5],[1,1,0,0,-5]];perimeter=orthogonalPerimeter;outlineConnect=0;targetShapes=umlLifeline;portConstraint=eastwest;newEdgeStyle={&quot;curved&quot;:0,&quot;rounded&quot;:0};" vertex="1" parent="6QF6XNmBkioUWHS-vhsG-136">
          <mxGeometry x="45" y="60" width="10" height="80" as="geometry" />
        </mxCell>
        <mxCell id="6QF6XNmBkioUWHS-vhsG-137" value="2. 触发搬运任务" style="text;html=1;align=center;verticalAlign=middle;resizable=0;points=[];autosize=1;strokeColor=none;fillColor=none;fontSize=11;" vertex="1" parent="1">
          <mxGeometry x="135" y="212" width="100" height="30" as="geometry" />
        </mxCell>
        <mxCell id="6QF6XNmBkioUWHS-vhsG-140" style="edgeStyle=orthogonalEdgeStyle;rounded=0;orthogonalLoop=1;jettySize=auto;html=1;curved=0;exitX=1;exitY=1;exitDx=0;exitDy=-5;exitPerimeter=0;" edge="1" parent="1">
          <mxGeometry relative="1" as="geometry">
            <mxPoint x="125" y="239" as="sourcePoint" />
            <mxPoint x="295" y="239" as="targetPoint" />
            <Array as="points">
              <mxPoint x="260" y="239" />
              <mxPoint x="260" y="239" />
            </Array>
          </mxGeometry>
        </mxCell>
        <mxCell id="6QF6XNmBkioUWHS-vhsG-149" style="edgeStyle=orthogonalEdgeStyle;rounded=0;orthogonalLoop=1;jettySize=auto;html=1;curved=0;exitX=1;exitY=0;exitDx=0;exitDy=5;exitPerimeter=0;entryX=0;entryY=0;entryDx=0;entryDy=5;entryPerimeter=0;" edge="1" parent="1">
          <mxGeometry relative="1" as="geometry">
            <mxPoint x="101" y="630" as="sourcePoint" />
            <mxPoint x="280" y="630" as="targetPoint" />
          </mxGeometry>
        </mxCell>
      </root>
    </mxGraphModel>
  </diagram>
</mxfile>
